# Blender v2.77 (sub 0) OBJ File: ''
# www.blender.org
mtllib Huge Battery.mtl
o Mesh1_Group1_Model.002
v -0.482963 0.000000 -0.129410
v -0.482963 -0.000000 0.129410
v -0.500000 0.000000 -0.000000
v -0.433013 -0.000000 0.250000
v -0.433013 0.000000 -0.250000
v -0.385537 0.100000 -0.103304
v -0.345663 0.100000 -0.199569
v -0.345663 1.500000 -0.199569
v -0.385537 1.500000 -0.103304
v -0.399137 0.100000 0.000000
v -0.399137 1.500000 0.000000
v -0.385537 0.100000 0.103304
v -0.385537 1.500000 0.103304
v -0.345663 0.100000 0.199569
v -0.345663 1.500000 0.199569
v -0.282233 0.100000 0.282233
v -0.282233 1.500000 0.282233
v -0.199569 1.500000 0.345663
v -0.199569 0.100000 0.345663
v -0.250000 -0.000000 0.433013
v -0.353553 -0.000000 0.353553
v -0.353553 0.000000 -0.353553
v -0.282233 0.100000 -0.282233
v -0.282233 1.500000 -0.282233
v -0.258313 1.600000 -0.149137
v -0.210912 1.600000 -0.210912
v -0.210912 1.600000 0.210912
v -0.258313 1.600000 0.149137
v -0.288111 1.600000 -0.077199
v -0.288111 1.600000 0.077199
v -0.298274 1.600000 0.000000
v -0.149137 1.600000 0.258313
v -0.103304 1.500000 0.385537
v -0.077199 1.600000 0.288111
v 0.000000 1.500000 0.399137
v 0.000000 1.600000 0.298274
v 0.103304 1.500000 0.385537
v 0.077199 1.600000 0.288111
v 0.149137 1.600000 0.258313
v 0.199569 1.500000 0.345663
v 0.103304 1.400000 0.385537
v 0.103304 0.200000 0.385537
v 0.103304 0.100000 0.385537
v 0.199569 0.100000 0.345663
v 0.129410 -0.000000 0.482963
v 0.250000 -0.000000 0.433013
v 0.129410 0.000000 -0.482963
v 0.000000 0.000000 -0.500000
v -0.000000 -0.000000 0.500000
v -0.129410 0.000000 -0.482963
v -0.129410 -0.000000 0.482963
v -0.250000 0.000000 -0.433013
v -0.199569 0.100000 -0.345663
v -0.199569 1.500000 -0.345663
v -0.149137 1.600000 -0.258313
v -0.077199 1.600000 -0.288111
v -0.000000 1.600000 -0.298274
v 0.077199 1.600000 -0.288111
v 0.149137 1.600000 -0.258313
v 0.210912 1.600000 -0.210912
v 0.210912 1.600000 0.210912
v 0.282233 1.500000 0.282233
v 0.282233 0.100000 0.282233
v 0.353553 -0.000000 0.353553
v 0.250000 0.000000 -0.433013
v 0.199569 0.100000 -0.345663
v 0.103304 0.100000 -0.385537
v 0.000000 0.100000 -0.399137
v -0.103304 0.100000 -0.385537
v -0.103304 1.500000 -0.385537
v 0.000000 1.500000 -0.399137
v 0.103304 1.500000 -0.385537
v 0.199569 1.500000 -0.345663
v 0.282233 1.500000 -0.282233
v 0.258313 1.600000 -0.149137
v 0.345663 1.500000 -0.199569
v 0.288111 1.600000 -0.077199
v 0.385537 1.500000 -0.103304
v 0.298274 1.600000 0.000000
v 0.399137 1.500000 0.000000
v 0.385537 1.500000 0.103304
v 0.288111 1.600000 0.077199
v 0.258313 1.600000 0.149137
v 0.345663 1.500000 0.199569
v 0.345663 0.100000 0.199569
v 0.433013 -0.000000 0.250000
v 0.433013 0.000000 -0.250000
v 0.353553 0.000000 -0.353553
v 0.282233 0.100000 -0.282233
v 0.345663 0.100000 -0.199569
v 0.385537 0.100000 -0.103304
v 0.399137 0.100000 0.000000
v 0.385537 0.100000 0.103304
v 0.482963 -0.000000 0.129410
v 0.482963 0.000000 -0.129410
v 0.500000 0.000000 0.000000
v -0.103304 0.100000 0.385537
v 0.000000 0.100000 0.399137
v 0.000000 0.200000 0.399137
v -0.103304 0.200000 0.385537
v 0.083304 0.220000 0.385537
v 0.083304 1.380000 0.385537
v -0.083304 1.380000 0.385537
v -0.103304 1.400000 0.385537
v -0.083304 0.220000 0.385537
v -0.083304 0.220000 0.370537
v 0.083304 0.220000 0.370537
v 0.083304 1.380000 0.370537
v -0.083304 1.380000 0.370537
v 0.000000 1.400000 0.399137
vt 23.7521 7.8740
vt 22.9647 8.6614
vt 15.6179 7.8740
vt 23.7521 55.1181
vt 22.9647 54.3307
vt 16.4053 54.3307
vt 15.6179 55.1181
vt 16.4053 8.6614
vt 22.9647 4.5064
vt 16.4053 5.0970
vt 16.4053 4.5064
vt 22.9647 5.0970
vt -4.5064 8.6614
vt -5.0970 54.3307
vt -5.0970 8.6614
vt -4.5064 54.3307
vt -16.4053 4.5064
vt -22.9647 5.0970
vt -22.9647 4.5064
vt -16.4053 5.0970
vt 4.5064 54.3307
vt 5.0970 8.6614
vt 5.0970 54.3307
vt 4.5064 8.6614
vt 0.6945 0.3667
vt 0.9722 2.3000
vt 0.6945 2.3000
vt 0.9722 0.3667
vt -0.0112 0.4130
vt -0.0112 0.2432
vt 0.0000 0.3281
vt -0.0440 0.1640
vt -0.0440 0.4921
vt -0.3945 -0.0117
vt -0.4715 -0.1045
vt -0.3858 -0.1045
vt -0.4628 -0.0117
vt -0.3945 0.0656
vt -0.4628 0.9843
vt -0.4628 0.0656
vt -0.3945 0.9843
vt -0.3339 0.0656
vt -0.4023 0.9843
vt -0.4023 0.0656
vt -0.3339 0.9843
vt -0.2483 0.0656
vt -0.3166 0.9843
vt -0.3166 0.0656
vt -0.2483 0.9843
vt -0.1434 0.0656
vt -0.2117 0.9843
vt -0.2117 0.0656
vt -0.1434 0.9843
vt -0.0264 0.0656
vt -0.0947 0.9843
vt -0.0947 0.0656
vt -0.0264 0.9843
vt 0.0264 0.0656
vt 0.0947 0.9843
vt 0.0264 0.9843
vt 0.0947 0.0656
vt 0.0264 0.1881
vt 0.1034 0.0953
vt 0.0947 0.1881
vt 0.0177 0.0953
vt -0.0947 0.1881
vt -0.0177 0.0953
vt -0.0264 0.1881
vt -0.1034 0.0953
vt -0.2117 0.1659
vt -0.1347 0.0731
vt -0.1434 0.1659
vt -0.2204 0.0731
vt -0.3166 0.1231
vt -0.2396 0.0303
vt -0.2483 0.1231
vt -0.3253 0.0303
vt -0.3339 0.0625
vt -0.4109 -0.0303
vt -0.3253 -0.0303
vt -0.4023 0.0625
vt -0.0961 0.0961
vt -0.0961 0.5601
vt -0.4258 -0.0944
vt -0.5028 -0.1872
vt -0.4172 -0.1872
vt -0.4942 -0.0944
vt -0.4258 0.0656
vt -0.4942 0.9843
vt -0.4942 0.0656
vt -0.4258 0.9843
vt -0.4345 0.6480
vt -0.4942 0.5552
vt -0.4258 0.5552
vt -0.4856 0.6480
vt 0.1586 0.4259
vt 0.1897 0.1897
vt 0.1897 0.4665
vt 0.1586 0.2302
vt 0.1390 0.3787
vt 0.1390 0.2774
vt 0.1324 0.3281
vt -0.4023 0.7121
vt -0.3426 0.8049
vt -0.3936 0.8049
vt -0.3339 0.7121
vt -0.2483 0.7727
vt -0.3080 0.8654
vt -0.3166 0.7727
vt -0.2569 0.8654
vt -0.1434 0.8155
vt -0.2031 0.9083
vt -0.2117 0.8155
vt -0.1520 0.9083
vt -0.0264 0.8376
vt -0.0861 0.9304
vt -0.0947 0.8376
vt -0.0350 0.9304
vt 0.0947 0.8376
vt 0.0350 0.9304
vt 0.0264 0.8376
vt 0.0861 0.9304
vt 0.2117 0.8155
vt 0.1520 0.9083
vt 0.1434 0.8155
vt 0.2031 0.9083
vt 0.3166 0.7727
vt 0.2569 0.8654
vt 0.2483 0.7727
vt 0.3080 0.8654
vt 0.4023 0.7121
vt 0.3426 0.8049
vt 0.3339 0.7121
vt 0.3936 0.8049
vt 0.3945 0.6379
vt 0.4542 0.7307
vt 0.4031 0.7307
vt 0.4628 0.6379
vt 0.3945 0.9186
vt 0.4628 0.9843
vt 0.3945 0.9843
vt 0.3945 0.1312
vt 0.3945 0.0656
vt 0.4628 0.0656
vt 0.3858 -0.1045
vt 0.4628 -0.0117
vt 0.3945 -0.0117
vt 0.4715 -0.1045
vt -0.4130 0.0112
vt -0.4130 0.6450
vt -0.4921 0.0440
vt -0.3281 0.6562
vt -0.3281 0.0000
vt -0.2432 0.6450
vt -0.2432 0.0112
vt -0.1640 0.6122
vt -0.1640 0.0440
vt -0.4258 -0.1800
vt -0.5028 -0.2728
vt -0.4172 -0.2728
vt -0.4942 -0.1800
vt -0.4258 0.9843
vt -0.4942 0.0656
vt -0.4258 0.0656
vt -0.4942 0.9843
vt -0.4345 0.5623
vt -0.4942 0.4695
vt -0.4258 0.4695
vt -0.4856 0.5623
vt 0.2302 0.1586
vt 0.2302 0.4976
vt 0.2774 0.1390
vt 0.2774 0.5171
vt 0.3281 0.1324
vt 0.3281 0.5238
vt 0.3787 0.5171
vt 0.3787 0.1390
vt 0.4259 0.1586
vt 0.4259 0.4976
vt 0.4665 0.4665
vt 0.4665 0.1897
vt 0.4258 0.5552
vt 0.4856 0.6480
vt 0.4345 0.6480
vt 0.4942 0.5552
vt 0.4258 0.0656
vt 0.4942 0.9843
vt 0.4258 0.9843
vt 0.4942 0.0656
vt 0.4172 -0.1872
vt 0.4942 -0.0944
vt 0.4258 -0.0944
vt 0.5028 -0.1872
vt -0.4921 0.6122
vt -0.5601 0.0961
vt -0.1347 -0.5331
vt -0.2117 -0.4403
vt -0.2204 -0.5331
vt -0.1434 -0.4403
vt -0.2396 -0.4903
vt -0.3166 -0.3975
vt -0.3253 -0.4903
vt -0.2483 -0.3975
vt -0.4109 -0.4297
vt -0.3339 -0.3369
vt -0.4023 -0.3369
vt -0.3253 -0.4297
vt -0.4715 -0.3556
vt -0.3945 -0.2628
vt -0.4628 -0.2628
vt -0.3858 -0.3556
vt -0.3945 0.9843
vt -0.4628 0.0656
vt -0.3945 0.0656
vt -0.4628 0.9843
vt -0.4031 0.4796
vt -0.4628 0.3868
vt -0.3945 0.3868
vt -0.4542 0.4796
vt -0.3426 0.4054
vt -0.4023 0.3126
vt -0.3339 0.3126
vt -0.3936 0.4054
vt -0.3080 0.3449
vt -0.2483 0.2521
vt -0.2569 0.3449
vt -0.3166 0.2521
vt -0.2031 0.3020
vt -0.1434 0.2093
vt -0.1520 0.3020
vt -0.2117 0.2093
vt -0.0861 0.2799
vt -0.0264 0.1871
vt -0.0350 0.2799
vt -0.0947 0.1871
vt 0.0350 0.2799
vt 0.0947 0.1871
vt 0.0861 0.2799
vt 0.0264 0.1871
vt 0.1520 0.3020
vt 0.2117 0.2093
vt 0.2031 0.3020
vt 0.1434 0.2093
vt 0.2569 0.3449
vt 0.3166 0.2521
vt 0.3080 0.3449
vt 0.2483 0.2521
vt 0.3936 0.4054
vt 0.3339 0.3126
vt 0.4023 0.3126
vt 0.3426 0.4054
vt 0.5171 0.3787
vt 0.5171 0.2774
vt 0.5238 0.3281
vt 0.4976 0.4259
vt 0.4976 0.2302
vt 0.4258 0.4695
vt 0.4856 0.5623
vt 0.4345 0.5623
vt 0.4942 0.4695
vt 0.4258 0.9843
vt 0.4942 0.0656
vt 0.4942 0.9843
vt 0.4258 0.0656
vt 0.4172 -0.2728
vt 0.4942 -0.1800
vt 0.4258 -0.1800
vt 0.5028 -0.2728
vt -0.6122 0.4921
vt -0.6122 0.1640
vt -0.5601 0.5601
vt -0.0177 -0.5553
vt -0.0947 -0.4625
vt -0.1034 -0.5553
vt -0.0264 -0.4625
vt -0.0264 0.9843
vt -0.0947 0.0656
vt -0.0264 0.0656
vt -0.0947 0.9843
vt 0.0264 0.9843
vt 0.0947 0.0656
vt 0.0947 0.9843
vt 0.0264 0.0656
vt 0.1434 0.9843
vt 0.2117 0.0656
vt 0.2117 0.9843
vt 0.1434 0.0656
vt 0.2483 0.9843
vt 0.3166 0.0656
vt 0.3166 0.9843
vt 0.2483 0.0656
vt 0.3339 0.9843
vt 0.4023 0.0656
vt 0.4023 0.9843
vt 0.3339 0.0656
vt 0.3945 0.9843
vt 0.4628 0.0656
vt 0.4628 0.9843
vt 0.3945 0.0656
vt 0.3858 -0.3556
vt 0.4628 -0.2628
vt 0.3945 -0.2628
vt 0.4715 -0.3556
vt -0.6450 0.2432
vt -0.6450 0.4130
vt 0.2204 -0.5331
vt 0.1434 -0.4403
vt 0.1347 -0.5331
vt 0.2117 -0.4403
vt 0.1034 -0.5553
vt 0.0264 -0.4625
vt 0.0177 -0.5553
vt 0.0947 -0.4625
vt 0.2483 -0.3975
vt 0.3253 -0.4903
vt 0.3166 -0.3975
vt 0.2396 -0.4903
vt 0.4023 -0.3369
vt 0.3253 -0.4297
vt 0.4109 -0.4297
vt 0.3339 -0.3369
vt -0.6562 0.3281
vt 0.4542 0.4796
vt 0.3945 0.3868
vt 0.4628 0.3868
vt 0.4031 0.4796
vt -0.2117 0.0656
vt -0.1434 0.9843
vt -0.2117 0.9843
vt -0.1434 0.0656
vt -0.3166 0.0656
vt -0.2483 0.9843
vt -0.3166 0.9843
vt -0.2483 0.0656
vt -0.4023 0.0656
vt -0.3339 0.9843
vt -0.4023 0.9843
vt -0.3339 0.0656
vt 0.2204 0.0731
vt 0.1434 0.1659
vt 0.1347 0.0731
vt 0.2117 0.1659
vt 0.3253 0.0303
vt 0.2483 0.1231
vt 0.2396 0.0303
vt 0.3166 0.1231
vt 0.4109 -0.0303
vt 0.3339 0.0625
vt 0.3253 -0.0303
vt 0.4023 0.0625
vt 0.4023 0.1312
vt 0.3339 0.0656
vt 0.4023 0.0656
vt 0.3339 0.1312
vt 0.3959 0.0751
vt 0.2603 0.0751
vt 0.3281 0.0662
vt 0.1434 0.9843
vt 0.2117 0.1312
vt 0.2117 0.9186
vt 0.1434 0.0656
vt 0.2117 0.0656
vt 0.2483 0.0656
vt 0.3166 0.1312
vt 0.2483 0.1312
vt 0.3166 0.0656
vt 0.2117 0.9843
vt 0.2483 0.9186
vt 0.3166 0.9843
vt 0.2483 0.9843
vt 0.3166 0.9186
vt -0.3959 0.0751
vt -0.3281 0.0662
vt -0.2603 0.0751
vt 0.4023 0.9843
vt 0.3339 0.9186
vt 0.4023 0.9186
vt 0.3339 0.9843
vt -0.4031 0.7307
vt -0.4628 0.6379
vt -0.3945 0.6379
vt -0.4542 0.7307
vn 0.0000 -0.0000 1.0000
vn 0.0000 1.0000 0.0000
vn -1.0000 0.0000 0.0000
vn 0.0000 -1.0000 0.0000
vn 1.0000 0.0000 0.0000
vn -0.6801 0.7101 -0.1822
vn -0.6097 0.7101 -0.3520
vn -0.9659 0.0000 -0.2588
vn -0.8660 0.0000 -0.5000
vn -0.9659 -0.0000 0.2588
vn -0.8660 -0.0000 0.5000
vn -0.7071 -0.0000 0.7071
vn -0.5000 -0.0000 0.8660
vn -0.4979 0.7101 0.4978
vn -0.3520 0.7101 0.6097
vn -0.6097 0.7101 0.3520
vn -0.6801 0.7101 0.1822
vn -0.7041 0.7101 0.0000
vn -0.4979 0.7101 -0.4978
vn -0.7071 0.0000 -0.7071
vn -0.4978 0.7101 -0.4978
vn -0.4978 0.7101 0.4978
vn -0.1822 0.7101 0.6801
vn 0.0000 0.7101 0.7041
vn 0.1822 0.7101 0.6801
vn 0.3520 0.7101 0.6097
vn 0.2588 -0.0000 0.9659
vn 0.5000 -0.0000 0.8660
vn -0.3520 0.7101 -0.6097
vn -0.5000 0.0000 -0.8660
vn 0.4978 0.7101 0.4978
vn 0.7071 -0.0000 0.7071
vn 0.4979 0.7101 0.4978
vn 0.1822 0.7101 -0.6801
vn 0.3520 0.7101 -0.6097
vn -0.0000 0.7101 -0.7041
vn -0.1822 0.7101 -0.6801
vn -0.2588 0.0000 -0.9659
vn 0.4978 0.7101 -0.4978
vn 0.6097 0.7101 -0.3520
vn 0.6801 0.7101 -0.1822
vn 0.7041 0.7101 -0.0000
vn 0.6801 0.7101 0.1822
vn 0.6097 0.7101 0.3520
vn 0.8660 -0.0000 0.5000
vn 0.4979 0.7101 -0.4978
vn 0.5000 0.0000 -0.8660
vn 0.7071 0.0000 -0.7071
vn 0.8660 0.0000 -0.5000
vn 0.9659 0.0000 -0.2588
vn 0.9659 -0.0000 0.2588
vn 0.2588 0.0000 -0.9659
vn 0.0000 0.0000 -1.0000
vn -0.2588 -0.0000 0.9659
usemtl Color_M08.002
s 1
f 42/1/1 101/2/1 100/3/1
f 101/2/1 42/1/1 41/4/1
f 101/2/1 41/4/1 102/5/1
f 102/5/1 41/4/1 103/6/1
f 104/7/1 103/6/1 41/4/1
f 104/7/1 105/8/1 103/6/1
f 100/3/1 105/8/1 104/7/1
f 105/8/1 100/3/1 101/2/1
f 101/9/2 106/10/2 105/11/2
f 106/10/2 101/9/2 107/12/2
f 101/13/3 108/14/3 107/15/3
f 108/14/3 101/13/3 102/16/3
f 103/17/4 108/18/4 102/19/4
f 108/18/4 103/17/4 109/20/4
f 103/21/5 106/22/5 109/23/5
f 106/22/5 103/21/5 105/24/5
usemtl Translucent_Glass_Sky_Reflection.003
f 106/25/1 108/26/1 109/27/1
f 108/26/1 106/25/1 107/28/1
usemtl _Aluminum_1.002
f 1/29/4 2/30/4 3/31/4
f 2/30/4 1/29/4 4/32/4
f 4/32/4 1/29/4 5/33/4
f 6/34/6 5/35/7 1/36/6
f 5/35/7 6/34/6 7/37/7
f 6/38/8 8/39/9 7/40/9
f 8/39/9 6/38/8 9/41/8
f 10/42/3 9/43/8 6/44/8
f 9/43/8 10/42/3 11/45/3
f 12/46/10 11/47/3 10/48/3
f 11/47/3 12/46/10 13/49/10
f 14/50/11 13/51/10 12/52/10
f 13/51/10 14/50/11 15/53/11
f 16/54/12 15/55/11 14/56/11
f 15/55/11 16/54/12 17/57/12
f 16/58/12 18/59/13 17/60/12
f 18/59/13 16/58/12 19/61/13
f 16/62/14 20/63/15 19/64/15
f 20/63/15 16/62/14 21/65/14
f 14/66/16 21/67/14 16/68/14
f 21/67/14 14/66/16 4/69/16
f 12/70/17 4/71/16 14/72/16
f 4/71/16 12/70/17 2/73/17
f 10/74/18 2/75/17 12/76/17
f 2/75/17 10/74/18 3/77/18
f 10/78/18 1/79/6 3/80/18
f 1/79/6 10/78/18 6/81/6
f 4/32/4 5/33/4 21/82/4
f 21/82/4 5/33/4 22/83/4
f 7/84/7 22/85/19 5/86/7
f 22/85/19 7/84/7 23/87/19
f 7/88/9 24/89/20 23/90/20
f 24/89/20 7/88/9 8/91/9
f 25/92/7 24/93/21 8/94/7
f 24/93/21 25/92/7 26/95/21
f 25/96/2 27/97/2 26/98/2
f 25/96/2 28/99/2 27/97/2
f 29/100/2 28/99/2 25/96/2
f 29/100/2 30/101/2 28/99/2
f 30/101/2 29/100/2 31/102/2
f 9/103/6 31/104/18 29/105/6
f 31/104/18 9/103/6 11/106/18
f 13/107/17 31/108/18 11/109/18
f 31/108/18 13/107/17 30/110/17
f 15/111/16 30/112/17 13/113/17
f 30/112/17 15/111/16 28/114/16
f 17/115/22 28/116/16 15/117/16
f 28/116/16 17/115/22 27/118/22
f 18/119/15 27/120/22 17/121/22
f 27/120/22 18/119/15 32/122/15
f 33/123/23 32/124/15 18/125/15
f 32/124/15 33/123/23 34/126/23
f 35/127/24 34/128/23 33/129/23
f 34/128/23 35/127/24 36/130/24
f 37/131/25 36/132/24 35/133/24
f 36/132/24 37/131/25 38/134/25
f 37/135/25 39/136/26 38/137/25
f 39/136/26 37/135/25 40/138/26
f 41/139/27 40/140/28 37/141/27
f 42/142/27 40/140/28 41/139/27
f 43/143/27 40/140/28 42/142/27
f 40/140/28 43/143/27 44/144/28
f 45/145/25 44/146/26 43/147/25
f 44/146/26 45/145/25 46/148/26
f 45/149/4 47/150/4 46/151/4
f 45/149/4 48/152/4 47/150/4
f 49/153/4 48/152/4 45/149/4
f 49/153/4 50/154/4 48/152/4
f 51/155/4 50/154/4 49/153/4
f 51/155/4 52/156/4 50/154/4
f 20/157/4 52/156/4 51/155/4
f 20/157/4 22/83/4 52/156/4
f 21/82/4 22/83/4 20/157/4
f 23/158/19 52/159/29 22/160/19
f 52/159/29 23/158/19 53/161/29
f 24/162/20 53/163/30 23/164/20
f 53/163/30 24/162/20 54/165/30
f 26/166/21 54/167/29 24/168/21
f 54/167/29 26/166/21 55/169/29
f 26/98/2 32/170/2 55/171/2
f 26/98/2 27/97/2 32/170/2
f 55/171/2 32/170/2 34/172/2
f 55/171/2 34/172/2 56/173/2
f 56/173/2 34/172/2 36/174/2
f 56/173/2 36/174/2 57/175/2
f 57/175/2 36/174/2 58/176/2
f 58/176/2 36/174/2 38/177/2
f 58/176/2 38/177/2 39/178/2
f 58/176/2 39/178/2 59/179/2
f 59/179/2 39/178/2 60/180/2
f 60/180/2 39/178/2 61/181/2
f 40/182/26 61/183/31 39/184/26
f 61/183/31 40/182/26 62/185/31
f 44/186/28 62/187/32 40/188/28
f 62/187/32 44/186/28 63/189/32
f 46/190/26 63/191/33 44/192/26
f 63/191/33 46/190/26 64/193/33
f 46/151/4 65/194/4 64/195/4
f 46/151/4 47/150/4 65/194/4
f 47/196/34 66/197/35 65/198/35
f 66/197/35 47/196/34 67/199/34
f 48/200/36 67/201/34 47/202/34
f 67/201/34 48/200/36 68/203/36
f 48/204/36 69/205/37 68/206/36
f 69/205/37 48/204/36 50/207/37
f 50/208/37 53/209/29 69/210/37
f 53/209/29 50/208/37 52/211/29
f 54/212/30 69/213/38 53/214/30
f 69/213/38 54/212/30 70/215/38
f 55/216/29 70/217/37 54/218/29
f 70/217/37 55/216/29 56/219/37
f 56/220/37 71/221/36 70/222/37
f 71/221/36 56/220/37 57/223/36
f 58/224/34 71/225/36 57/226/36
f 71/225/36 58/224/34 72/227/34
f 59/228/35 72/229/34 58/230/34
f 72/229/34 59/228/35 73/231/35
f 60/232/39 73/233/35 59/234/35
f 73/233/35 60/232/39 74/235/39
f 75/236/40 74/237/39 60/238/39
f 74/237/39 75/236/40 76/239/40
f 77/240/41 76/241/40 75/242/40
f 76/241/40 77/240/41 78/243/41
f 79/244/42 78/245/41 77/246/41
f 78/245/41 79/244/42 80/247/42
f 79/248/42 81/249/43 80/250/42
f 81/249/43 79/248/42 82/251/43
f 77/252/2 82/253/2 79/254/2
f 75/255/2 82/253/2 77/252/2
f 75/255/2 83/256/2 82/253/2
f 60/180/2 83/256/2 75/255/2
f 60/180/2 61/181/2 83/256/2
f 62/257/31 83/258/44 61/259/31
f 83/258/44 62/257/31 84/260/44
f 62/261/32 85/262/45 84/263/45
f 85/262/45 62/261/32 63/264/32
f 64/265/33 85/266/44 63/267/33
f 85/266/44 64/265/33 86/268/44
f 64/195/4 87/269/4 86/270/4
f 64/195/4 88/271/4 87/269/4
f 64/195/4 65/194/4 88/271/4
f 65/272/35 89/273/46 88/274/46
f 89/273/46 65/272/35 66/275/35
f 73/276/47 89/277/48 66/278/47
f 89/277/48 73/276/47 74/279/48
f 76/280/49 89/281/48 74/282/48
f 89/281/48 76/280/49 90/283/49
f 78/284/50 90/285/49 76/286/49
f 90/285/49 78/284/50 91/287/50
f 80/288/5 91/289/50 78/290/50
f 91/289/50 80/288/5 92/291/5
f 81/292/51 92/293/5 80/294/5
f 92/293/5 81/292/51 93/295/51
f 84/296/45 93/297/51 81/298/51
f 93/297/51 84/296/45 85/299/45
f 86/300/44 93/301/43 85/302/44
f 93/301/43 86/300/44 94/303/43
f 86/270/4 87/269/4 94/304/4
f 94/304/4 87/269/4 95/305/4
f 87/306/40 91/307/41 95/308/41
f 91/307/41 87/306/40 90/309/40
f 88/310/46 90/311/40 87/312/40
f 90/311/40 88/310/46 89/313/46
f 92/314/42 95/315/41 91/316/41
f 95/315/41 92/314/42 96/317/42
f 92/318/42 94/319/43 96/320/42
f 94/319/43 92/318/42 93/321/43
f 94/304/4 95/305/4 96/322/4
f 82/323/43 84/324/44 81/325/43
f 84/324/44 82/323/43 83/326/44
f 66/327/47 72/328/52 73/329/47
f 72/328/52 66/327/47 67/330/52
f 67/331/52 71/332/53 72/333/52
f 71/332/53 67/331/52 68/334/53
f 68/335/53 70/336/38 71/337/53
f 70/336/38 68/335/53 69/338/38
f 51/339/23 19/340/15 20/341/15
f 19/340/15 51/339/23 97/342/23
f 49/343/24 97/344/23 51/345/23
f 97/344/23 49/343/24 98/346/24
f 45/347/25 98/348/24 49/349/24
f 98/348/24 45/347/25 43/350/25
f 42/351/27 98/352/1 43/353/27
f 98/352/1 42/351/27 99/354/1
f 42/355/2 100/356/2 99/357/2
f 18/358/13 100/359/54 104/360/54
f 19/361/13 100/359/54 18/358/13
f 100/359/54 19/361/13 97/362/54
f 97/363/54 99/364/1 100/365/54
f 99/364/1 97/363/54 98/366/1
f 18/358/13 104/360/54 33/367/54
f 104/368/54 35/369/1 33/370/54
f 35/369/1 104/368/54 110/371/1
f 41/372/4 110/373/4 104/374/4
f 37/375/27 110/376/1 41/377/27
f 110/376/1 37/375/27 35/378/1
f 29/379/6 8/380/7 9/381/6
f 8/380/7 29/379/6 25/382/7
