# Alias OBJ Model File
# Exported from SketchUp, (c) 2000-2012 Trimble Navigation Limited
# File units = millimeters

mtllib Keycard.mtl

g Mesh1 Group1 Model

usemtl Steel_Brushed_Stainless
v 90.3807 -8.09413 19
vt 2.30379 5.5
vn -0.965926 -0.258819 3.8567e-009
v 90.5 -9 19
vt 2.39516 5.5
vn -0.991445 -0.130526 1.94499e-009
v 90.5 -9 21
vt 2.39516 5.7
v 90.3807 -8.09413 21
vt 2.30379 5.7
f 1/1/1 2/2/2 3/3/2 4/4/1 

v 83.6193 -8.09413 19
vt -17.6619 0.0905867
vn 2.23267e-014 -1.4901e-008 -1
v 83.5 -9 19
vt -17.65 2.46991e-012
v 78.5 -9 19
vt -17.15 2.41577e-012
v 78.3807 -8.09413 19
vt -17.1381 0.0905867
v 78.0311 -7.25 19
vt -17.1031 0.175
v 77.4749 -6.52513 19
vt -17.0475 0.247487
v 76.75 -5.96891 19
vt -16.975 0.303109
v 75.9059 -5.61926 19
vt -16.8906 0.338074
v 75 -5.5 19
vt -16.8 0.35
v 74.0941 -5.61926 19
vt -16.7094 0.338074
v 73.25 -5.96891 19
vt -16.625 0.303109
v 72.5251 -6.52513 19
vt -16.5525 0.247487
v 71.9689 -7.25 19
vt -16.4969 0.175
v 71.6193 -8.09413 19
vt -16.4619 0.0905867
v 71.5 -9 19
vt -16.45 2.34357e-012
v -4.33147e-012 -9 19
vt -9.3 1.69385e-012
v -1.44382e-012 -3 19
vt -9.3 0.6
v 93 -3 19
vt -18.6 0.6
v 93 -9 19
vt -18.6 2.56015e-012
vt -18.35 2.52405e-012
vt -18.3381 0.0905867
v 90.0311 -7.25 19
vt -18.3031 0.175
v 89.4749 -6.52513 19
vt -18.2475 0.247487
v 88.75 -5.96891 19
vt -18.175 0.303109
v 87.9059 -5.61926 19
vt -18.0906 0.338074
v 87 -5.5 19
vt -18 0.35
v 86.0941 -5.61926 19
vt -17.9094 0.338074
v 85.25 -5.96891 19
vt -17.825 0.303109
v 84.5251 -6.52513 19
vt -17.7525 0.247487
v 83.9689 -7.25 19
vt -17.6969 0.175
f 5/5/3 6/6/3 7/7/3 8/8/3 9/9/3 10/10/3 11/11/3 12/12/3 13/13/3 14/14/3 15/15/3 16/16/3 17/17/3 18/18/3 19/19/3 20/20/3 21/21/3 22/22/3 23/23/3 2/24/3 1/25/3 24/26/3 25/27/3 26/28/3 27/29/3 28/30/3 29/31/3 30/32/3 31/33/3 32/34/3 

vn 0.991445 -0.130526 1.94713e-009
vn 0.965926 -0.258819 3.85778e-009
v 83.6193 -8.09413 21
v 83.5 -9 21
f 6/1/4 5/2/5 33/3/5 34/4/4 

vt 6.84262 5.5
vt 6.93399 5.5
vn 0.866025 -0.5 7.45057e-009
v 83.9689 -7.25 21
vt 6.93399 5.7
vt 6.84262 5.7
f 5/35/5 32/36/6 35/37/6 33/38/5 

vt 10.912 5.5
vt 11.0034 5.5
vn 0.707107 -0.707107 1.05367e-008
v 84.5251 -6.52513 21
vt 11.0034 5.7
vt 10.912 5.7
f 32/39/6 31/40/7 36/41/7 35/42/6 

vt 14.2347 5.5
vt 14.326 5.5
vn 0.5 -0.866025 1.29048e-008
v 85.25 -5.96891 21
vt 14.326 5.7
vt 14.2347 5.7
f 31/43/7 30/44/8 37/45/8 36/46/7 

vt 16.5841 5.5
vt 16.6755 5.5
vn 0.258819 -0.965926 1.43934e-008
v 86.0941 -5.61926 21
vt 16.6755 5.7
vt 16.5841 5.7
f 30/47/8 29/48/9 38/49/9 37/50/8 

vt 17.8003 5.5
vt 17.8917 5.5
vn 9.79128e-014 -1 1.49011e-008
v 87 -5.5 21
vt 17.8917 5.7
vt 17.8003 5.7
f 29/51/9 28/52/10 39/53/10 38/54/9 

vn -0.258819 -0.965926 1.43934e-008
v 87.9059 -5.61926 21
f 28/51/10 27/52/11 40/53/11 39/54/10 

vn -0.5 -0.866025 1.29048e-008
v 88.75 -5.96891 21
f 27/47/11 26/48/12 41/49/12 40/50/11 

vn -0.707107 -0.707107 1.05367e-008
v 89.4749 -6.52513 21
f 26/43/12 25/44/13 42/45/13 41/46/12 

vn -0.866025 -0.5 7.45057e-009
v 90.0311 -7.25 21
f 25/39/13 24/40/14 43/41/14 42/42/13 

f 24/35/14 1/36/1 4/37/1 43/38/14 

vn 0 -1.49011e-008 -1
vt -18.35 1.75064e-012
vt -17.65 1.67844e-012
f 4/25/15 3/55/15 34/56/15 33/5/15 35/34/15 36/33/15 37/32/15 38/31/15 39/30/15 40/29/15 41/28/15 42/27/15 43/26/15 

v -93 -9 36
vt 2.88765e-013 7.2
vn 9.50699e-014 -1 1.49011e-008
v -93 -9 19
vt 2.88765e-013 5.5
v -46.5 -9 19
vt 4.65 5.5
v -39.5 -9 12
vt 5.35 4.8
v -7 -9 12
vt 8.6 4.8
vt 9.3 5.5
vt 16.45 5.5
v 71.5 -9 21
vt 16.45 5.7
v 78.5 -9 21
vt 17.15 5.7
vt 17.15 5.5
vt 17.65 5.5
vt 17.65 5.7
vt 18.35 5.7
vt 18.35 5.5
vt 18.6 5.5
v 93 -9 36
vt 18.6 7.2
f 44/57/16 45/58/16 46/59/16 47/60/16 48/61/16 20/62/16 19/63/16 49/64/16 50/65/16 7/66/16 6/67/16 34/68/16 3/69/16 2/70/16 23/71/16 51/72/16 

v -93 9 19
vt -1.8 5.5
vn -1 -1.77312e-013 -8.49308e-014
v -93 3 19
vt -1.2 5.5
v -93 -3 19
vt -0.6 5.5
vt 1.26898e-015 5.5
vt -1.67788e-014 7.2
v -93 9 36
vt -1.8 7.2
f 52/73/17 53/74/17 54/75/17 45/76/17 44/77/17 55/78/17 

v -55.65 3 19
vt -3.735 1.2
vt -2.88765e-013 1.2
vt 0 1.8
v -55.65 9 19
vt -3.735 1.8
f 56/79/15 53/80/15 52/81/15 57/82/15 

usemtl _1
v -55.65 3 12
vt -1.47047 1.88976
vn 1.42471e-013 1 -1.49011e-008
vt -4.63778e-014 2.16535
vt -1.47047 2.16535
f 58/83/18 53/84/18 56/85/18

v -39.5 3 6
vt -2.1063 1.65354
f 59/86/18 53/84/18 58/83/18

v 45 3 -15
vt -5.43307 0.826772
f 60/87/18 53/84/18 59/86/18

v 40 3 -15
vt -5.23622 0.826772
f 61/88/18 53/84/18 60/87/18

v 35 3 -15
vt -5.03937 0.826772
f 62/89/18 53/84/18 61/88/18

v 30 3 -15
vt -4.84252 0.826772
f 63/90/18 53/84/18 62/89/18

v 25 3 -15
vt -4.64567 0.826772
f 64/91/18 53/84/18 63/90/18

v 20 3 -15
vt -4.44882 0.826772
f 65/92/18 53/84/18 64/91/18

v 15 3 -15
vt -4.25197 0.826772
f 66/93/18 53/84/18 65/92/18

v 10 3 -15
vt -4.05512 0.826772
f 67/94/18 53/84/18 66/93/18

v -14 3 -15
vt -3.11024 0.826772
f 68/95/18 53/84/18 67/94/18

v -19 3 -15
vt -2.91339 0.826772
f 69/96/18 53/84/18 68/95/18

v -24 3 -15
vt -2.71654 0.826772
f 70/97/18 53/84/18 69/96/18

v -29 3 -15
vt -2.51969 0.826772
f 71/98/18 53/84/18 70/97/18

v -34 3 -15
vt -2.32283 0.826772
f 72/99/18 53/84/18 71/98/18

v -39 3 -15
vt -2.12598 0.826772
f 73/100/18 53/84/18 72/99/18

v -44 3 -15
vt -1.92913 0.826772
f 74/101/18 53/84/18 73/100/18

v -49 3 -15
vt -1.73228 0.826772
f 75/102/18 53/84/18 74/101/18

v -54 3 -15
vt -1.53543 0.826772
f 76/103/18 53/84/18 75/102/18

v -59 3 -15
vt -1.33858 0.826772
f 77/104/18 53/84/18 76/103/18

v -64 3 -15
vt -1.14173 0.826772
f 78/105/18 53/84/18 77/104/18

v -69 3 -15
vt -0.944882 0.826772
f 79/106/18 53/84/18 78/105/18

v -74 3 -15
vt -0.748031 0.826772
f 80/107/18 53/84/18 79/106/18

v -79 3 -15
vt -0.551181 0.826772
f 81/108/18 53/84/18 80/107/18

v -84 3 -15
vt -0.354331 0.826772
f 82/109/18 53/84/18 81/108/18

v -89 3 -15
vt -0.15748 0.826772
f 83/110/18 53/84/18 82/109/18

v -89 3 -32
vt -0.15748 0.15748
f 84/111/18 53/84/18 83/110/18

v -93 3 -36
vt -4.63778e-014 -1.43243e-016
f 84/111/18 85/112/18 53/84/18

v 93 3 -36
vt -7.32283 -1.43243e-016
f 85/112/18 84/111/18 86/113/18

v -84 3 -32
vt -0.354331 0.15748
f 86/113/18 84/111/18 87/114/18

v -85 3 -32
vt -0.314961 0.15748
f 88/115/18 87/114/18 84/111/18

f 87/114/18 88/115/18 82/109/18

v -85 3 -15
vt -0.314961 0.826772
f 82/109/18 88/115/18 89/116/18

usemtl Color_D06
vn 1.42056e-013 1 -1.49011e-008
f 88/115/19 84/111/19 83/110/19 89/116/19 

usemtl _1
f 82/109/18 89/116/18 83/110/18

usemtl Color_D06
v -80 3 -32
vt -0.511811 0.15748
vn -4.14957e-016 1 -2.18108e-016
v -80 3 -15
vt -0.511811 0.826772
f 90/117/20 87/114/20 82/109/20 91/118/20 

usemtl _1
v 14 3 -32
vt -4.2126 0.15748
f 92/119/18 87/114/18 90/117/18

f 92/119/18 86/113/18 87/114/18

v 89 3 -32
vt -7.16535 0.15748
f 93/120/18 86/113/18 92/119/18

v 93 3 19
vt -7.32283 2.16535
f 86/113/18 93/120/18 94/121/18

v 89 3 -15
vt -7.16535 0.826772
f 94/121/18 93/120/18 95/122/18

usemtl Color_D06
vn -1.42886e-013 1 1.49011e-008
v 85 3 -32
vt -7.00787 0.15748
v 85 3 -15
vt -7.00787 0.826772
f 93/120/21 96/123/21 97/124/21 95/122/21 

usemtl _1
v 84 3 -32
vt -6.9685 0.15748
f 93/120/18 98/125/18 96/123/18

v 80 3 -32
vt -6.81102 0.15748
f 93/120/18 99/126/18 98/125/18

v 79 3 -32
vt -6.77165 0.15748
f 93/120/18 100/127/18 99/126/18

v 75 3 -32
vt -6.61417 0.15748
f 93/120/18 101/128/18 100/127/18

v 74 3 -32
vt -6.5748 0.15748
f 93/120/18 102/129/18 101/128/18

v 70 3 -32
vt -6.41732 0.15748
f 93/120/18 103/130/18 102/129/18

v 69 3 -32
vt -6.37795 0.15748
f 93/120/18 104/131/18 103/130/18

v 65 3 -32
vt -6.22047 0.15748
f 93/120/18 105/132/18 104/131/18

v 64 3 -32
vt -6.1811 0.15748
f 93/120/18 106/133/18 105/132/18

v 60 3 -32
vt -6.02362 0.15748
f 93/120/18 107/134/18 106/133/18

v 59 3 -32
vt -5.98425 0.15748
f 93/120/18 108/135/18 107/134/18

v 55 3 -32
vt -5.82677 0.15748
f 93/120/18 109/136/18 108/135/18

v 54 3 -32
vt -5.7874 0.15748
f 93/120/18 110/137/18 109/136/18

v 50 3 -32
vt -5.62992 0.15748
f 93/120/18 111/138/18 110/137/18

v 49 3 -32
vt -5.59055 0.15748
f 93/120/18 112/139/18 111/138/18

v 45 3 -32
vt -5.43307 0.15748
f 93/120/18 113/140/18 112/139/18

v 44 3 -32
vt -5.3937 0.15748
f 93/120/18 114/141/18 113/140/18

v 40 3 -32
vt -5.23622 0.15748
f 93/120/18 115/142/18 114/141/18

v 39 3 -32
vt -5.19685 0.15748
f 93/120/18 116/143/18 115/142/18

v 35 3 -32
vt -5.03937 0.15748
f 93/120/18 117/144/18 116/143/18

v 34 3 -32
vt -5 0.15748
f 93/120/18 118/145/18 117/144/18

v 30 3 -32
vt -4.84252 0.15748
f 93/120/18 119/146/18 118/145/18

v 29 3 -32
vt -4.80315 0.15748
f 93/120/18 120/147/18 119/146/18

v 25 3 -32
vt -4.64567 0.15748
f 93/120/18 121/148/18 120/147/18

v 24 3 -32
vt -4.6063 0.15748
f 93/120/18 122/149/18 121/148/18

v 20 3 -32
vt -4.44882 0.15748
f 93/120/18 123/150/18 122/149/18

v 19 3 -32
vt -4.40945 0.15748
f 93/120/18 124/151/18 123/150/18

v 15 3 -32
vt -4.25197 0.15748
f 93/120/18 125/152/18 124/151/18

f 93/120/18 92/119/18 125/152/18

v 14 3 -15
vt -4.2126 0.826772
f 126/153/18 125/152/18 92/119/18

f 125/152/18 126/153/18 66/93/18

f 66/93/18 126/153/18 67/94/18

usemtl Color_D06
v 10 3 -32
vt -4.05512 0.15748
f 92/119/20 127/154/20 67/94/20 126/153/20 

usemtl _1
v -10 3 -32
vt -3.26772 0.15748
f 92/119/18 128/155/18 127/154/18

v -14 3 -32
vt -3.11024 0.15748
f 92/119/18 129/156/18 128/155/18

v -15 3 -32
vt -3.07087 0.15748
f 92/119/18 130/157/18 129/156/18

v -19 3 -32
vt -2.91339 0.15748
f 92/119/18 131/158/18 130/157/18

v -20 3 -32
vt -2.87402 0.15748
f 92/119/18 132/159/18 131/158/18

v -24 3 -32
vt -2.71654 0.15748
f 92/119/18 133/160/18 132/159/18

v -25 3 -32
vt -2.67717 0.15748
f 92/119/18 134/161/18 133/160/18

v -29 3 -32
vt -2.51969 0.15748
f 92/119/18 135/162/18 134/161/18

v -30 3 -32
vt -2.48031 0.15748
f 92/119/18 136/163/18 135/162/18

v -34 3 -32
vt -2.32283 0.15748
f 92/119/18 137/164/18 136/163/18

v -35 3 -32
vt -2.28346 0.15748
f 92/119/18 138/165/18 137/164/18

v -39 3 -32
vt -2.12598 0.15748
f 92/119/18 139/166/18 138/165/18

v -40 3 -32
vt -2.08661 0.15748
f 92/119/18 140/167/18 139/166/18

v -44 3 -32
vt -1.92913 0.15748
f 92/119/18 141/168/18 140/167/18

v -45 3 -32
vt -1.88976 0.15748
f 92/119/18 142/169/18 141/168/18

v -49 3 -32
vt -1.73228 0.15748
f 92/119/18 143/170/18 142/169/18

v -50 3 -32
vt -1.69291 0.15748
f 92/119/18 144/171/18 143/170/18

v -54 3 -32
vt -1.53543 0.15748
f 92/119/18 145/172/18 144/171/18

v -55 3 -32
vt -1.49606 0.15748
f 92/119/18 146/173/18 145/172/18

v -59 3 -32
vt -1.33858 0.15748
f 92/119/18 147/174/18 146/173/18

v -60 3 -32
vt -1.29921 0.15748
f 92/119/18 148/175/18 147/174/18

v -64 3 -32
vt -1.14173 0.15748
f 92/119/18 149/176/18 148/175/18

v -65 3 -32
vt -1.10236 0.15748
f 92/119/18 150/177/18 149/176/18

v -69 3 -32
vt -0.944882 0.15748
f 92/119/18 151/178/18 150/177/18

v -70 3 -32
vt -0.905512 0.15748
f 92/119/18 152/179/18 151/178/18

v -74 3 -32
vt -0.748031 0.15748
f 92/119/18 153/180/18 152/179/18

v -75 3 -32
vt -0.708661 0.15748
f 92/119/18 154/181/18 153/180/18

v -79 3 -32
vt -0.551181 0.15748
f 92/119/18 155/182/18 154/181/18

f 92/119/18 90/117/18 155/182/18

f 91/118/18 155/182/18 90/117/18

f 155/182/18 91/118/18 81/108/18

f 81/108/18 91/118/18 82/109/18

usemtl Color_D06
v -75 3 -15
vt -0.708661 0.826772
f 154/181/20 155/182/20 81/108/20 156/183/20 

usemtl _1
f 80/107/18 156/183/18 81/108/18

f 153/180/18 156/183/18 80/107/18

f 156/183/18 153/180/18 154/181/18

usemtl Color_D06
v -70 3 -15
vt -0.905512 0.826772
f 152/179/20 153/180/20 80/107/20 157/184/20 

usemtl _1
f 79/106/18 157/184/18 80/107/18

f 151/178/18 157/184/18 79/106/18

f 157/184/18 151/178/18 152/179/18

usemtl Color_D06
v -65 3 -15
vt -1.10236 0.826772
f 150/177/20 151/178/20 79/106/20 158/185/20 

usemtl _1
f 78/105/18 158/185/18 79/106/18

f 149/176/18 158/185/18 78/105/18

f 158/185/18 149/176/18 150/177/18

usemtl Color_D06
v -60 3 -15
vt -1.29921 0.826772
f 148/175/20 149/176/20 78/105/20 159/186/20 

usemtl _1
f 77/104/18 159/186/18 78/105/18

f 147/174/18 159/186/18 77/104/18

f 159/186/18 147/174/18 148/175/18

usemtl Color_D06
v -55 3 -15
vt -1.49606 0.826772
f 146/173/20 147/174/20 77/104/20 160/187/20 

usemtl _1
f 76/103/18 160/187/18 77/104/18

f 145/172/18 160/187/18 76/103/18

f 160/187/18 145/172/18 146/173/18

usemtl Color_D06
v -50 3 -15
vt -1.69291 0.826772
f 144/171/20 145/172/20 76/103/20 161/188/20 

usemtl _1
f 75/102/18 161/188/18 76/103/18

f 143/170/18 161/188/18 75/102/18

f 161/188/18 143/170/18 144/171/18

usemtl Color_D06
v -45 3 -15
vt -1.88976 0.826772
f 142/169/20 143/170/20 75/102/20 162/189/20 

usemtl _1
f 74/101/18 162/189/18 75/102/18

f 141/168/18 162/189/18 74/101/18

f 162/189/18 141/168/18 142/169/18

usemtl Color_D06
v -40 3 -15
vt -2.08661 0.826772
f 140/167/20 141/168/20 74/101/20 163/190/20 

usemtl _1
f 73/100/18 163/190/18 74/101/18

f 139/166/18 163/190/18 73/100/18

f 163/190/18 139/166/18 140/167/18

usemtl Color_D06
v -35 3 -15
vt -2.28346 0.826772
f 138/165/20 139/166/20 73/100/20 164/191/20 

usemtl _1
f 72/99/18 164/191/18 73/100/18

f 137/164/18 164/191/18 72/99/18

f 164/191/18 137/164/18 138/165/18

usemtl Color_D06
v -30 3 -15
vt -2.48031 0.826772
f 136/163/20 137/164/20 72/99/20 165/192/20 

usemtl _1
f 71/98/18 165/192/18 72/99/18

f 135/162/18 165/192/18 71/98/18

f 165/192/18 135/162/18 136/163/18

usemtl Color_D06
v -25 3 -15
vt -2.67717 0.826772
f 134/161/20 135/162/20 71/98/20 166/193/20 

usemtl _1
f 70/97/18 166/193/18 71/98/18

f 133/160/18 166/193/18 70/97/18

f 166/193/18 133/160/18 134/161/18

usemtl Color_D06
v -20 3 -15
vt -2.87402 0.826772
f 132/159/20 133/160/20 70/97/20 167/194/20 

usemtl _1
f 69/96/18 167/194/18 70/97/18

f 131/158/18 167/194/18 69/96/18

f 167/194/18 131/158/18 132/159/18

usemtl Color_D06
v -15 3 -15
vt -3.07087 0.826772
f 130/157/20 131/158/20 69/96/20 168/195/20 

usemtl _1
f 68/95/18 168/195/18 69/96/18

f 129/156/18 168/195/18 68/95/18

f 168/195/18 129/156/18 130/157/18

usemtl Color_D06
v -10 3 -15
vt -3.26772 0.826772
f 128/155/20 129/156/20 68/95/20 169/196/20 

usemtl _1
f 67/94/18 169/196/18 68/95/18

f 127/154/18 169/196/18 67/94/18

f 169/196/18 127/154/18 128/155/18

usemtl Color_D06
v 19 3 -15
vt -4.40945 0.826772
f 124/151/21 125/152/21 66/93/21 170/197/21 

usemtl _1
f 65/92/18 170/197/18 66/93/18

f 123/150/18 170/197/18 65/92/18

f 170/197/18 123/150/18 124/151/18

usemtl Color_D06
v 24 3 -15
vt -4.6063 0.826772
f 122/149/21 123/150/21 65/92/21 171/198/21 

usemtl _1
f 64/91/18 171/198/18 65/92/18

f 121/148/18 171/198/18 64/91/18

f 171/198/18 121/148/18 122/149/18

usemtl Color_D06
v 29 3 -15
vt -4.80315 0.826772
f 120/147/21 121/148/21 64/91/21 172/199/21 

usemtl _1
f 63/90/18 172/199/18 64/91/18

f 119/146/18 172/199/18 63/90/18

f 172/199/18 119/146/18 120/147/18

usemtl Color_D06
v 34 3 -15
vt -5 0.826772
f 118/145/21 119/146/21 63/90/21 173/200/21 

usemtl _1
f 62/89/18 173/200/18 63/90/18

f 117/144/18 173/200/18 62/89/18

f 173/200/18 117/144/18 118/145/18

usemtl Color_D06
v 39 3 -15
vt -5.19685 0.826772
f 116/143/21 117/144/21 62/89/21 174/201/21 

usemtl _1
f 61/88/18 174/201/18 62/89/18

f 115/142/18 174/201/18 61/88/18

f 174/201/18 115/142/18 116/143/18

usemtl Color_D06
v 44 3 -15
vt -5.3937 0.826772
f 114/141/21 115/142/21 61/88/21 175/202/21 

usemtl _1
f 60/87/18 175/202/18 61/88/18

f 113/140/18 175/202/18 60/87/18

f 175/202/18 113/140/18 114/141/18

usemtl Color_D06
v 49 3 -15
vt -5.59055 0.826772
f 112/139/21 113/140/21 60/87/21 176/203/21 

usemtl _1
v 50 3 -15
vt -5.62992 0.826772
f 177/204/18 176/203/18 60/87/18

f 111/138/18 176/203/18 177/204/18

f 176/203/18 111/138/18 112/139/18

usemtl Color_D06
v 54 3 -15
vt -5.7874 0.826772
f 110/137/21 111/138/21 177/204/21 178/205/21 

usemtl _1
v 55 3 -15
vt -5.82677 0.826772
f 179/206/18 178/205/18 177/204/18

f 109/136/18 178/205/18 179/206/18

f 178/205/18 109/136/18 110/137/18

usemtl Color_D06
v 59 3 -15
vt -5.98425 0.826772
f 108/135/21 109/136/21 179/206/21 180/207/21 

usemtl _1
v 60 3 -15
vt -6.02362 0.826772
f 181/208/18 180/207/18 179/206/18

f 107/134/18 180/207/18 181/208/18

f 180/207/18 107/134/18 108/135/18

usemtl Color_D06
v 64 3 -15
vt -6.1811 0.826772
f 106/133/21 107/134/21 181/208/21 182/209/21 

usemtl _1
v 65 3 -15
vt -6.22047 0.826772
f 183/210/18 182/209/18 181/208/18

f 105/132/18 182/209/18 183/210/18

f 182/209/18 105/132/18 106/133/18

usemtl Color_D06
v 69 3 -15
vt -6.37795 0.826772
f 104/131/21 105/132/21 183/210/21 184/211/21 

usemtl _1
v 70 3 -15
vt -6.41732 0.826772
f 185/212/18 184/211/18 183/210/18

f 103/130/18 184/211/18 185/212/18

f 184/211/18 103/130/18 104/131/18

usemtl Color_D06
v 74 3 -15
vt -6.5748 0.826772
f 102/129/21 103/130/21 185/212/21 186/213/21 

usemtl _1
v 75 3 -15
vt -6.61417 0.826772
f 187/214/18 186/213/18 185/212/18

f 101/128/18 186/213/18 187/214/18

f 186/213/18 101/128/18 102/129/18

usemtl Color_D06
v 79 3 -15
vt -6.77165 0.826772
f 100/127/21 101/128/21 187/214/21 188/215/21 

usemtl _1
v 80 3 -15
vt -6.81102 0.826772
f 189/216/18 188/215/18 187/214/18

f 99/126/18 188/215/18 189/216/18

f 188/215/18 99/126/18 100/127/18

usemtl Color_D06
v 84 3 -15
vt -6.9685 0.826772
f 98/125/21 99/126/21 189/216/21 190/217/21 

usemtl _1
f 97/124/18 190/217/18 189/216/18

f 96/123/18 190/217/18 97/124/18

f 190/217/18 96/123/18 98/125/18

f 189/216/18 59/86/18 97/124/18

f 187/214/18 59/86/18 189/216/18

f 185/212/18 59/86/18 187/214/18

f 183/210/18 59/86/18 185/212/18

f 181/208/18 59/86/18 183/210/18

f 179/206/18 59/86/18 181/208/18

f 177/204/18 59/86/18 179/206/18

f 60/87/18 59/86/18 177/204/18

v -7 3 6
vt -3.38583 1.65354
f 191/218/18 97/124/18 59/86/18

v 24.55 3 6
vt -4.62795 1.65354
f 192/219/18 97/124/18 191/218/18

f 94/121/18 97/124/18 192/219/18

f 94/121/18 95/122/18 97/124/18

v 41 3 12
vt -5.27559 1.88976
f 94/121/18 192/219/18 193/220/18

v 30.55 3 12
vt -4.86417 1.88976
f 193/220/18 192/219/18 194/221/18

usemtl Steel_Brushed_Stainless
vt 1.2 11.2819
vn 0.707107 -1.0537e-008 -0.707107
v 24.55 9 6
vt 1.8 11.2819
v 30.55 9 12
vt 1.8 12.1304
vt 1.2 12.1304
f 192/222/22 195/223/22 196/224/22 194/225/22 

v 12 3 6
vt -10.5 1.2
v 12 9 6
vt -10.5 1.8
vt -11.755 1.8
vt -11.755 1.2
f 197/226/15 198/227/15 195/228/15 192/229/15 

v 6 3 12
vt -1.2 -3.60624
vn -0.707107 -1.05364e-008 -0.707107
v 6 9 12
vt -1.8 -3.60624
vt -1.8 -4.45477
vt -1.2 -4.45477
f 199/230/23 200/231/23 198/232/23 197/233/23 

v -1 3 12
vt -9.2 1.2
vn 4.31052e-014 -1.49012e-008 -1
v -1 9 12
vt -9.2 1.8
vt -9.9 1.8
vt -9.9 1.2
f 201/234/24 202/235/24 200/236/24 199/237/24 

vt 1.2 9.05097
vn 0.707107 -1.05371e-008 -0.707107
v -7 9 6
vt 1.8 9.05097
vt 1.8 9.89949
vt 1.2 9.89949
f 191/238/25 203/239/25 202/240/25 201/241/25 

vt -5.35 1.2
vn -2.42951e-015 -1.49012e-008 -1
v -39.5 9 6
vt -5.35 1.8
vt -8.6 1.8
vt -8.6 1.2
f 59/242/26 204/243/26 203/244/26 191/245/26 

v -45.5 3 12
vt -1.2 0.0353553
vn -0.707107 -1.05366e-008 -0.707107
v -45.5 9 12
vt -1.8 0.0353553
vt -1.8 -0.813173
vt -1.2 -0.813173
f 205/246/27 206/247/27 204/248/27 59/249/27 

v -55.65 9 12
vt -4.75 1.8
vt -4.75 1.2
f 58/79/15 207/82/15 206/250/15 205/251/15 

vn -1 4.81274e-013 -7.17154e-021
vt -1.8 4.8
vt -1.2 4.8
f 56/74/28 57/73/28 207/252/28 58/253/28 

v 93 9 36
vt -18.6 7.2
vn 8.36634e-015 1 -1.49011e-008
v 93 9 19
vt -18.6 5.5
v 41 9 19
vt -13.4 5.5
v 41 9 12
vt -13.4 4.8
vt -12.355 4.8
vt -11.755 4.2
vt -10.5 4.2
vt -9.9 4.8
vt -9.2 4.8
vt -8.6 4.2
vt -5.35 4.2
vt -4.75 4.8
vt -3.735 4.8
vt -3.735 5.5
vt 1.50594e-014 5.5
vt 1.50594e-014 7.2
f 208/254/29 209/255/29 210/256/29 211/257/29 196/258/29 195/259/29 198/260/29 200/261/29 202/262/29 203/263/29 204/264/29 206/265/29 207/266/29 57/267/29 52/268/29 55/269/29 

vt 1.78546e-012 5.5
vn 1 0 -0
vt 0.6 5.5
vt 1.2 5.5
vt 1.8 5.5
vt 1.8 7.2
vt 1.78546e-012 7.2
f 23/270/30 22/271/30 94/272/30 209/273/30 208/274/30 51/275/30 

usemtl _1
vt 0.472441 1.92234e-013
vn 1 -2.40637e-013 -2.62513e-014
vt 0.472441 2.16535
vt 0.23622 2.16535
v 93 -3 -36
vt 0.23622 1.92234e-013
f 86/276/31 94/277/31 22/278/31 212/279/31 

v -46.5 -3 19
vt 1.83071 2.16535
vn -1.41888e-013 -1 1.49011e-008
vt 1.93857e-013 2.16535
v -93 -3 -36
vt 8.017e-014 5.9141e-016
vt 7.32283 5.9141e-016
vt 7.32283 2.16535
vt 3.66142 2.16535
v -7 -3 12
vt 3.38583 1.88976
v -39.5 -3 12
vt 2.1063 1.88976
f 213/280/32 54/281/32 214/282/32 212/283/32 22/284/32 21/285/32 215/286/32 216/287/32 

usemtl Steel_Brushed_Stainless
vt -4.65 0.6
vt -4.65 4.49926e-013
vt -2.88765e-013 -1.26898e-015
vt -5.77529e-013 0.6
f 213/288/15 46/289/15 45/290/15 54/291/15 

vt -0.6 -0.388909
vn -0.707107 -1.0537e-008 -0.707107
vt 2.05161e-012 -0.388909
vt 1.78815e-012 0.601041
vt -0.6 0.601041
f 216/292/33 47/293/33 46/294/33 213/295/33 

vt -8.6 0.6
vt -8.6 8.30198e-013
vt -5.35 5.23386e-013
vt -5.35 0.6
f 215/296/15 48/297/15 47/298/15 216/299/15 

vt 0.6 10.4652
vn 0.707107 -1.05365e-008 -0.707107
vt -2.06166e-012 10.4652
vt -1.92627e-012 9.47523
vt 0.6 9.47523
f 21/300/34 20/301/34 48/302/34 215/303/34 

usemtl _1
vt -0.23622 3.82201e-027
vn -1 -2.10083e-013 2.3403e-014
vt -0.23622 2.16535
vt -0.472441 2.16535
vt -0.472441 4.9834e-027
f 214/304/35 54/305/35 53/306/35 85/307/35 

vt -1.13687e-013 0.23622
vn -8.39389e-018 -1.49011e-008 -1
vt -1.13687e-013 0.472441
vt -7.32283 0.472441
vt -7.32283 0.23622
f 214/308/36 85/309/36 86/310/36 212/311/36 

usemtl Steel_Brushed_Stainless
v 41 3 19
vt -13.4 1.2
vt -13.4 1.8
vt -18.6 1.8
vt -18.6 1.2
f 217/312/15 210/313/15 209/314/15 94/315/15 

vt 1.2 4.8
vn 1 -4.81274e-013 7.17154e-021
vt 1.8 4.8
f 193/316/37 211/317/37 210/273/37 217/272/37 

vt -12.355 1.2
vt -12.355 1.8
f 194/318/15 196/319/15 211/313/15 193/312/15 

usemtl _1
vt -5.27559 2.16535
f 94/121/18 193/220/18 217/320/18

usemtl Steel_Brushed_Stainless
vt 18.6 1.8
vn 0 1.49011e-008 1
vt 2.88765e-013 1.67788e-014
vt 18.6 1.78546e-012
f 208/321/38 55/81/38 44/322/38 51/323/38 

usemtl _1
vt -1.87008 1.88976
f 205/324/18 59/86/18 58/83/18

vt -3.62205 1.88976
vt -4.13386 1.65354
f 201/325/18 197/326/18 191/218/18

vt -3.89764 1.88976
f 197/326/18 201/325/18 199/327/18

f 192/219/18 191/218/18 197/326/18

usemtl Steel_Brushed_Stainless
vt 2.14716 5.5
vn 0.991445 -0.130526 1.94643e-009
vt 2.23852 5.5
vn 0.965926 -0.258819 3.85742e-009
v 71.6193 -8.09413 21
vt 2.23852 5.7
vt 2.14716 5.7
f 19/328/39 18/329/40 218/330/40 49/331/39 

vt 6.3834 5.5
vt 6.47477 5.5
v 71.9689 -7.25 21
vt 6.47477 5.7
vt 6.3834 5.7
f 18/332/40 17/333/6 219/334/6 218/335/40 

vt 10.1815 5.5
vt 10.2729 5.5
v 72.5251 -6.52513 21
vt 10.2729 5.7
vt 10.1815 5.7
f 17/336/6 16/337/7 220/338/7 219/339/6 

vt 13.2827 5.5
vt 13.374 5.5
v 73.25 -5.96891 21
vt 13.374 5.7
vt 13.2827 5.7
f 16/340/7 15/341/8 221/342/8 220/343/7 

vt 15.4755 5.5
vt 15.5669 5.5
v 74.0941 -5.61926 21
vt 15.5669 5.7
vt 15.4755 5.7
f 15/344/8 14/345/9 222/346/9 221/347/8 

vt 16.6106 5.5
vt 16.702 5.5
vn 1.04422e-014 -1 1.49011e-008
v 75 -5.5 21
vt 16.702 5.7
vt 16.6106 5.7
f 14/348/9 13/349/41 223/350/41 222/351/9 

v 75.9059 -5.61926 21
f 13/348/41 12/349/11 224/350/11 223/351/41 

v 76.75 -5.96891 21
f 12/344/11 11/345/12 225/346/12 224/347/11 

v 77.4749 -6.52513 21
f 11/340/12 10/341/13 226/342/13 225/343/12 

v 78.0311 -7.25 21
f 10/336/13 9/337/14 227/338/14 226/339/13 

v 78.3807 -8.09413 21
f 9/332/14 8/333/1 228/334/1 227/335/14 

f 8/328/1 7/329/2 50/330/2 228/331/1 

vt -17.15 1.64235e-012
vt -16.45 1.58821e-012
f 228/8/15 50/352/15 49/353/15 218/18/15 219/17/15 220/16/15 221/15/15 222/14/15 223/13/15 224/12/15 225/11/15 226/10/15 227/9/15 

